<svg xmlns="http://www.w3.org/2000/svg" class="prefix__img-fluid" viewBox="2082 3697 5530 1613"><path fill="#e67917" d="m2317 5203 12-473 10-365-6-113-6-113-123-112-122-111 4-8 5-8h62c34 0 125-7 202-15s161-15 186-15h46l29-14c16-8 48-18 72-22l42-7v23h179l53 11 53 11 57 30 58 31 34 41 34 42 16 48 17 48 5 57 6 56-11 57-10 57-20 42-20 41 21 29 22 29 6-7c4-5 26-69 48-143 120-393 154-502 158-508 4-7 169 30 179 39 5 5 15 9 22 9h13v-30c0-35-4-34 50-15l43 15h95l9 13c11 13 34 87 78 247 15 52 40 133 56 180s29 93 29 103v17h18l6-97c4-54 8-128 8-165l2-66-26-39c-33-51-70-124-65-129 5-6 164-21 357-35l155-11 110 4 110 4 55 28c64 32 93 57 122 106l24 38c1 2 32-26 69-62l66-66 76-37 77-36 97-5 97-5 52 13 52 12 5 14 5 14h14c13 0 21 6 99 79l36 33 18 35 18 35 36-49c20-28 57-69 83-93l46-42 71-33 72-33 63-13 64-12 70 13 70 12 31 28c18 15 42 30 53 34l22 7 46 49c26 28 48 50 51 50 2 0 6-33 10-74 4-40 10-78 14-85l7-11 55-10c30-5 74-9 99-8l45 2 7 10 7 10 18-21 18-21 70-15c39-8 70-15 71-14l67 270c6 26 14 47 18 47s14-19 24-42c9-24 42-96 72-160l56-117 26-5c14-3 52-8 84-11l57-6v41h9c5 0 11-5 13-11l3-10 60-5c76-6 199-22 232-30l25-7-28 49c-15 27-42 70-60 96l-32 48-6 37c-3 21-10 85-15 143l-26 260c-15 160-20 285-15 426l3 81-16 24-16 24-13 173-12 174-21-5-102-28-83-23v-26h-28l-15 23-15 22-18-17-19-16-63-12c-34-7-64-15-66-19-2-3 0-31 4-61 5-30 10-83 13-116l5-62-28-5c-15-3-61-9-102-13l-75-6-6 23c-4 13-9 60-13 104-3 44-7 85-9 91l-3 12-119-28c-65-15-159-36-210-46l-92-18 6-70 6-71-29 25-34 31c-3 4-30 19-60 34l-55 28-85 1-85 1-48-8-47-8-9 22-8 23-26-27-27-26v-29l-50-36-51-37-39-60c-21-33-41-65-44-72l-5-12-12 20c-6 11-42 50-79 87l-67 67-39 16c-22 10-61 23-89 31l-50 14h-120l-50-14c-27-8-67-21-88-30l-39-17-61-59-60-59-40 45-39 44-42 25c-24 14-69 34-102 45l-59 21-161 14a4334 4334 0 0 1-364 21l-125 6-8 14-8 14h-16c-9 0-47 9-85 21-39 11-72 18-74 16-3-2-15-48-29-102-13-53-26-99-29-102l-5-5-62 11-63 11-7 11c-4 7-12 37-18 68s-16 73-22 94l-10 37h-155l-12-12-13-13-7 12-7 12-85 11-140 17-55 6-30 15c-33 17-163 54-265 77-36 8-94 24-130 35-80 24-78 24-82 0l-3-19-94 44c-51 25-96 45-100 45h-6zm3745-699 18-31 11-56 11-56-6-44-7-44-14-19-13-19-21 19-21 19-15 50-15 51v91l11 38 10 38 17-3 16-3zm-786-26 16-31 5-77 6-76-12-22-12-22-19 10-20 11-15 34-14 35-6 58-7 57 11 28 11 27h39z" style="transform:none"/><g fill="#b8451c" style="transform:none"><path d="m2317 5203 12-473 10-365-6-113-6-113-123-112-122-111 4-8 5-8h62c34 0 125-7 202-15s161-15 186-15h46l29-14c16-8 48-18 72-22l42-7v23h179l53 11 53 11 57 30 58 31 34 41 34 42 16 48 17 48 5 57 6 56-11 57-10 57-20 42-20 41 21 29 22 29 6-7c4-5 26-69 48-143 120-393 154-502 158-508 4-7 169 30 179 39 5 5 15 9 22 9h13v-30c0-35-4-34 50-15l43 15h95l9 13c11 13 34 87 78 247 15 52 40 133 56 180s29 93 29 103v17h18l6-97c4-54 8-128 8-165l2-66-26-39c-33-51-70-124-65-129 5-6 164-21 357-35l155-11 110 4 110 4 55 28c64 32 93 57 122 106l24 38c1 2 32-26 69-62l66-66 76-37 77-36 97-5 97-5 52 13 52 12 5 14 5 14h14c13 0 21 6 99 79l36 33 18 35 18 35 36-49c20-28 57-69 83-93l46-42 71-33 72-33 63-13 64-12 70 13 70 12 31 28c18 15 42 30 53 34l22 7 46 49c26 28 48 50 51 50 2 0 6-33 10-74 4-40 10-78 14-85l7-11 55-10c30-5 74-9 99-8l45 2 7 10 7 10 18-21 18-21 70-15c39-8 70-15 71-14l67 270c6 26 14 47 18 47s14-19 24-42c9-24 42-96 72-160l56-117 26-5c14-3 52-8 84-11l57-6v41h9c5 0 11-5 13-11l3-10 60-5c76-6 199-22 232-30l25-7-28 49c-15 27-42 70-60 96l-32 48-6 37c-3 21-10 85-15 143l-26 260c-15 160-20 285-15 426l3 81-16 24-16 24-13 173-12 174-21-5-102-28-83-23v-26h-28l-15 23-15 22-18-17-19-16-63-12c-34-7-64-15-66-19-2-3 0-31 4-61 5-30 10-83 13-116l5-62-28-5c-15-3-61-9-102-13l-75-6-6 23c-4 13-9 60-13 104-3 44-7 85-9 91l-3 12-119-28c-65-15-159-36-210-46l-92-18 6-70 6-71-29 25-34 31c-3 4-30 19-60 34l-55 28-85 1-85 1-48-8-47-8-9 22-8 23-26-27-27-26v-29l-50-36-51-37-39-60c-21-33-41-65-44-72l-5-12-12 20c-6 11-42 50-79 87l-67 67-39 16c-22 10-61 23-89 31l-50 14h-120l-50-14c-27-8-67-21-88-30l-39-17-61-59-60-59-40 45-39 44-42 25c-24 14-69 34-102 45l-59 21-161 14a4334 4334 0 0 1-364 21l-125 6-8 14-8 14h-16c-9 0-47 9-85 21-39 11-72 18-74 16-3-2-15-48-29-102-13-53-26-99-29-102l-5-5-62 11-63 11-7 11c-4 7-12 37-18 68s-16 73-22 94l-10 37h-155l-12-12-13-13-7 12-7 12-85 11-140 17-55 6-30 15c-33 17-163 54-265 77-36 8-94 24-130 35-80 24-78 24-82 0l-3-19-94 44c-51 25-96 45-100 45h-6zm172-89c65-35 121-80 121-96 0-15-20-8-85 32-36 22-70 40-76 40h-11l6-32c3-18 6-86 7-150l1-118h20l-6-16-6-17 6-48 7-49 21-1 21-1-12-5-13-5v-47l-10-6c-5-3-10-9-10-13v-8l26-2 26-2-12 15-13 15 6 6 6 6 30-22 31-21v23l25-16c13-9 28-16 33-16h9l2 147c1 81 4 149 6 152 7 6 145-18 197-35l47-15 31-35 30-35v-121l-29-29-30-29-31-6-31-7 22-15 21-15 46-3 46-3 10 14c6 7 22 16 36 19l25 6-13-6-12-6v-17c0-9-5-22-12-29l-12-12h33l10 17 9 17 29 1h28l22 45c12 25 25 57 28 71l6 26-38 37-38 36h55v-8c0-5 11-14 25-20l25-12v-66l-15-51-15-51-39-35c-21-19-48-38-60-42l-22-7 32-36 32-36 25-55 25-54 1-71 1-71-31-55-31-55-56-29-56-29-121-6-120-6-9 28-10 27h-21v-70l-22 14-23 15-169 12-168 13 53 51c30 28 76 69 104 92l49 42-5 5-5 5-38-10-38-10-5 5-6 5 18 28c10 15 28 35 39 44l21 17-7 7-6 7-20-11c-12-6-24-11-29-11h-8l2 285 1 285h-18v340h7c3 0 36-16 72-36m461-98 45-17 46-33 46-34 32-48 31-48 15-50 15-50-10-10-10-10-9 9c-5 6-16 33-25 62l-17 52-44 49-45 49-52 26c-29 14-87 37-128 50l-75 25-62 7-62 7 6-24 6-23-12 11-13 12-5 39-5 40 143-38c79-20 164-44 189-53m4344 37c2-10 8-52 11-93l7-75 14-40c17-51 17-55-1-55h-15l-15 24-16 23-7 94-7 94h-28l-7-15-20-45-12-30-9 23-8 22 12 37 12 37 25 7c14 4 33 7 42 8l17 1zm-171-33c22-27 22-28-10-22l-26 5 6-74 23-204 16-130 9-9 9-10 28 27c15 15 31 27 35 27 13 0 7-23-10-36l-18-14 19-15 20-15h37l-7 23-7 22 22-19 21-19-1 49c0 27-3 79-7 116l-8 67 8-5c5-3 15-18 22-33l14-27 12-144c10-129 30-354 49-552l7-68h-6c-3 1-25 18-50 40-24 22-46 37-49 35-2-3 12-24 31-47 39-49 118-161 118-169 0-2-34-2-75 2l-76 6-39 38-40 39v-16c0-9 5-29 10-43l10-26-27 3-28 3-32 65c-36 71-130 269-173 366-16 34-33 65-39 68l-10 7-5-23-42-183-48-215-12-55-16-3-16-3-26 25-25 26h-14c-7 0-18-5-24-11l-11-11-7 41-7 41-8 5-9 6-14-48-14-48-12 1-30 3-19 1-6 68c-17 162-75 599-107 794-11 70-19 135-17 144l3 18 110 22 110 22 7-6 6-7 26-261c14-144 26-276 26-295v-33l9 10c5 5 27 88 50 184l47 193 5 17h27l15-22 16-23v16l1 17 16 12 15 13 18-19 18-19 66-145 81-184 16-39 5 5 6 5-11 89c-17 142-60 548-60 561v12l23 4 27 6c3 0 13-8 23-19m-3866-79 12-16 1 16v16l28-5 27-5 9-15 9-15 12 16 12 17 30 6 31 6 23-96c13-53 26-101 30-107l6-11 114-14 134-14h21l24 96c13 52 27 97 30 99 4 2 16 1 28-2l22-5v-48h10c6 0 10 5 10 10v10h38l9-37 9-38 17 33 18 32h32c17 0 38-4 45-8l12-8-70-230c-39-126-100-330-136-453l-65-225-11-13-10-13h-44l4 66 5 67-10-6c-6-4-18-27-27-51l-17-45-20-6-20-7-13 11-13 11-29-14c-16-8-42-16-58-18l-29-3-34 110-69 225c-36 120-60 197-114 365-62 197-99 320-100 332v13l33-7 32-6zm948-101c38-17 73-30 78-30h9l-5 20-5 20h41c23 0 94-7 157-15l115-14 48-16 48-17 50-47 49-46 15-38 15-37-17-7c-10-4-24-13-31-20-16-15-22-16-41-4l-14 9 7 11 7 11h19c10 0 21 4 24 9l6 9-29 39c-33 46-69 74-125 97l-40 17-90 9c-50 5-115 10-145 10h-53l4-25 5-25h-5c-3 0-41 14-84 32-42 17-80 30-82 27-3-3 9-269 17-362l2-29 35-13 55-21 20-8-12 16-13 15 6 6 7 6 20-10 20-11 56-2 56-2 3-17 3-17h29v19l72-1h73l12-17 12-16 1 16v16l40-1 39-1 27 21c15 11 37 33 48 48l21 27v110l20-3 20-3-2-52-2-52-21-41-20-40-40-26c-22-15-40-28-40-31 0-2 16-18 37-36l36-32 18-40 19-40v-40c0-22-5-56-10-75l-10-35-25-28-25-28-48-22-47-22-140 1-140 1-132 13-133 13v7c0 4 11 24 25 44s32 50 41 67l15 31-5 5-6 6-16-14-17-14 8 34 7 33-10 7-9 6-12 240-17 343-6 102h18c11 0 50-14 89-30m1976-13 47-28 45-48 45-48 32-63 31-62 20-77 20-76v-224l-12-48-12-48-30-58-30-58-28-20-29-20-45 20-45 20 10-20 11-19h-24l19-21 18-20-13-8c-7-5-39-12-71-15l-57-7-48 11c-26 6-73 23-104 38l-56 27-52 51-51 51-37 73-37 73-15 81-15 81 5 105 5 105 22 59 22 58 64 67 63 66 1-27v-27l8-5 8-4 23 33c12 19 22 37 21 42-1 4 7 11 17 15l18 8 95-3 95-3zm-850-17 64-20 46-37c78-63 109-107 149-215l19-53 11-75 11-75-7-65-7-65-18-61-19-61-30-41-29-41-22-11-21-12-45 17-44 17-5-5-6-5 22-12 23-12-14-9-14-8 19-14 19-14-47-13-47-13-71 6-72 6-61 30-62 31-46 40-46 41-40 79-39 79-12 57-12 57 3 111 4 111 32 65c18 36 46 82 63 102l30 37 53 26 53 25 44 9c25 5 59 9 76 10l32 1zm-789-166c31-16 66-58 74-89l5-22-14-36-15-36-30-15-30-16-69-6-68-6-40 14-40 13-3 114-4 113 104-7 103-7z"/><path d="M2680 4711v-108l53-7c28-3 71-6 95-6h43l24 25 25 24v81l-32 35-33 35-80 15-87 15h-8zm-8-150 16-11 24 1c12 1 32-2 43-6l20-8-12 13-11 12-49 5-48 4zm8-184-3-105-2-102h184l21 28 22 27-5 38-5 39-23 24-23 24-35 9c-37 9-131 22-131 18m3841 506-64-15 6-47c16-118 49-325 54-334l5-9 27 6 26 6-22-16c-13-9-23-21-23-26v-10l13 10 13 11 27-3c15-1 30-6 34-9 3-4 11-7 16-7h9l-12 15-13 15-11-2-12-3-2 10-2 10 23 1 36 3 13 1-7 103c-4 56-12 147-18 202l-12 100-20 2c-11 0-49-6-84-14m319-190c0-10-10-57-22-105l-22-87 7-8 8-7 7 11 7 11 72 12 72 12 11-7 10-6v10c0 8-68 171-75 179-1 1-10 0-19-4l-16-6v-37l-10-6-10-6v50l-10 6-10 6zm390-178c-7-9-11-18-8-20 3-3 11 1 18 10s11 18 8 20c-3 3-11-1-18-10m-269-23-9-18h35l-5 18c-2 10-6 18-8 18s-8-8-13-18m-3736 428 71-228c8-23 14-47 14-53 0-9 69-191 75-198 2-1 9 0 14 4l11 6-15 15c-8 9-15 20-15 25v10l23-7c12-4 32-8 44-8 12-1 25-4 29-8 4-5 15-8 25-8h17l-13 51-14 52 92-7c51-4 109-10 130-13l39-6-7-42-6-43 17-6 16-6-6-18-6-17 14 18 13 17h16c9 0 19-4 22-10 3-5 11-10 16-10h10l-6 19-6 19 21-5 21-6-5-13-5-14h19l9 23c16 38 111 352 111 364v12l-26-14-26-13-21-34-22-33-3 30c-1 17-5 41-8 53l-5 24-25-6-24-6-9 22-8 23-6-20-28-97-22-78h-18c-35 0-263 32-284 40l-22 8-17 69c-9 37-22 81-28 96l-11 28-14-6-39-11-24-6v17l-36 2-35 2-16 13-16 13z"/><path d="M3556 4469c8-35 26-100 39-145 14-44 25-88 25-97v-17h20l4 23 34 152c17 71 29 131 28 133l-84 9-81 6zm809-261c4-40 9-75 11-77 3-3 30-7 62-9l58-4 36 15 37 16 6 23 6 24-10 27-11 28-35 14-34 15h-133zm1603 613-38-8-19-17c-10-9-27-32-37-51s-22-35-26-35h-8v51l-19-10-19-10-31-49-31-49-15-49-15-49-6-80-7-80 26-1 25-2 6 24 6 24h22l-6-16-6-15 10-20c6-10 15-19 20-19h9l3 27 3 26 14 5 14 5-7-18-6-18 15 13 15 12v32c0 18 7 56 15 84l16 52 35 34 36 34 39 7 39 7 34-12 35-11 30-35c40-45 61-86 69-136l7-41 23-3 22-4v10c0 5 9 17 19 27l19 18 10 35 10 35 1-37 1-37-27-26c-30-27-28-30 11-15l26 10v30h10c5 0 13-8 19-17l9-18 6 5 5 6-13 54-12 55-34 63-33 63-39 44-39 44-52 25-52 25-50 4-50 5z"/><path d="M5996 4619c-15-4-36-15-46-24l-19-17-15-46-16-46v-122l11-60 11-59 28-45 29-45 29-18 30-17h74l28 28 28 29 12 44 12 44-4 96-4 96-31 64-32 64-22 14c-13 7-34 17-48 21l-26 7zm66-115 18-31 11-56 11-56-6-44-7-44-14-19-13-19-21 19-21 19-15 50-15 51v91l11 38 10 38 17-3 16-3zm-913 281-47-15-48-32-48-33-23-33c-12-19-31-58-43-88l-20-55-6-68-7-69 24-4 24-3 10-22 10-23h28l-18 20-18 20h43v-22l14 5 15 6-6-15-5-14 16 6 16 6v66l20 65 21 66 25 30 25 31 41 11 41 11 34-7 33-6 37-32 36-32 22-50c12-27 25-62 29-78l6-27 27 6 26 7-7-12-7-11h6c4 0 15 5 25 10l19 10-5 15-6 15h22v-21l11 7 11 6-5 19-5 19h28v39l-40 78-41 78-37 33-37 34-61 29-61 30-49 4-49 5zm361-220-12-15h-38v19l28 4 31 6c2 0-2-6-9-14"/><path d="m5174 4581-32-19-18-49-19-48 1-81 2-80 22-52 22-52 39-35 39-35h82l33 33 33 33 12 45 12 44-5 74-6 74-30 62-31 63-26 17-27 17-36 5-36 4zm102-103 16-31 5-77 6-76-12-22-12-22-19 10-20 11-15 34-14 35-6 58-7 57 11 28 11 27h39zm264-78c8-5 21-10 28-10h12v20h-55zm-1191 236c-2-2-3-39-1-81l4-76 26-10 27-11 69 4 68 4 19 23 19 23v49l-16 24-16 24-31 10c-36 10-161 23-168 17"/></g><g fill="#142f42" style="transform:none"><path d="m2317 5203 12-473 10-365-6-113-6-113-123-112-122-111 4-8 5-8h62c34 0 125-7 202-15s161-15 186-15h46l29-14c16-8 48-18 72-22l42-7v23h179l53 11 53 11 57 30 58 31 34 41 34 42 16 48 17 48 5 57 6 56-11 57-10 57-20 42-20 41 21 29 22 29 6-7c4-5 26-69 48-143 120-393 154-502 158-508 4-7 169 30 179 39 5 5 15 9 22 9h13v-30c0-35-4-34 50-15l43 15h95l9 13c11 13 34 87 78 247 15 52 40 133 56 180s29 93 29 103v17h18l6-97c4-54 8-128 8-165l2-66-26-39c-33-51-70-124-65-129 5-6 164-21 357-35l155-11 110 4 110 4 55 28c64 32 93 57 122 106l24 38c1 2 32-26 69-62l66-66 76-37 77-36 97-5 97-5 52 13 52 12 5 14 5 14h14c13 0 21 6 99 79l36 33 18 35 18 35 36-49c20-28 57-69 83-93l46-42 71-33 72-33 63-13 64-12 70 13 70 12 31 28c18 15 42 30 53 34l22 7 46 49c26 28 48 50 51 50 2 0 6-33 10-74 4-40 10-78 14-85l7-11 55-10c30-5 74-9 99-8l45 2 7 10 7 10 18-21 18-21 70-15c39-8 70-15 71-14l67 270c6 26 14 47 18 47s14-19 24-42c9-24 42-96 72-160l56-117 26-5c14-3 52-8 84-11l57-6v41h9c5 0 11-5 13-11l3-10 60-5c76-6 199-22 232-30l25-7-28 49c-15 27-42 70-60 96l-32 48-6 37c-3 21-10 85-15 143l-26 260c-15 160-20 285-15 426l3 81-16 24-16 24-13 173-12 174-21-5-102-28-83-23v-26h-28l-15 23-15 22-18-17-19-16-63-12c-34-7-64-15-66-19-2-3 0-31 4-61 5-30 10-83 13-116l5-62-28-5c-15-3-61-9-102-13l-75-6-6 23c-4 13-9 60-13 104-3 44-7 85-9 91l-3 12-119-28c-65-15-159-36-210-46l-92-18 6-70 6-71-29 25-34 31c-3 4-30 19-60 34l-55 28-85 1-85 1-48-8-47-8-9 22-8 23-26-27-27-26v-29l-50-36-51-37-39-60c-21-33-41-65-44-72l-5-12-12 20c-6 11-42 50-79 87l-67 67-39 16c-22 10-61 23-89 31l-50 14h-120l-50-14c-27-8-67-21-88-30l-39-17-61-59-60-59-40 45-39 44-42 25c-24 14-69 34-102 45l-59 21-161 14a4334 4334 0 0 1-364 21l-125 6-8 14-8 14h-16c-9 0-47 9-85 21-39 11-72 18-74 16-3-2-15-48-29-102-13-53-26-99-29-102l-5-5-62 11-63 11-7 11c-4 7-12 37-18 68s-16 73-22 94l-10 37h-155l-12-12-13-13-7 12-7 12-85 11-140 17-55 6-30 15c-33 17-163 54-265 77-36 8-94 24-130 35-80 24-78 24-82 0l-3-19-94 44c-51 25-96 45-100 45h-6zm203-96c30-18 63-33 73-33l17-1v38l38-7c106-18 285-71 345-101l49-24 45-45 45-45 24-54 25-54-1-43c-1-24 1-55 5-70l7-26-17-57-16-57-45-48c-24-26-44-52-44-59 0-6 17-37 38-68l37-56v-203l-30-49-30-48-60-31-60-30-119-4-118-5-9 14-8 14-13-18-14-18-25 10-26 9-127 11-149 11c-12 0-29 5-37 11l-15 10 90 85 90 86-17-6-18-5-15 5-15 6v17c0 9 7 27 16 39l15 22h-31v569l-10 6-10 6v294l6 23 7 23 26-6c14-4 51-21 81-38m4784-58c3-17 6-50 6-73v-41l15-60c8-33 14-68 15-79v-18l-25 6-26 7 16-25 16-24 9-94 21-228 19-220 16-164 7-79-26 5-25 5 44-66c24-36 44-72 44-80v-14l-76 6-76 6-27 25c-15 14-30 26-33 26h-5l4-24 5-24-22-7-21-7-16 14-16 13-54 115-106 222-51 107-8-5-8-5v13l-1 13-8-15c-4-8-14-44-20-80-17-89-78-336-86-349q-15-27-60 15l-28 26-23-6-24-6-13 32-14 33-12-37-13-38h-56l-9 13-9 12-18 155c-21 174-40 315-86 633-18 120-30 220-28 222 2 3 57 15 122 28l118 24 8-23c5-13 14-74 19-136 16-170 40-390 44-394 2-2 18 58 36 134 18 75 39 156 48 180l15 42h12c7 0 17-5 23-11l11-11 19 13 20 12 17-6 17-7 49-105c28-58 50-109 50-114 0-4 9-16 19-25l20-18 8 5 9 6-8 78c-12 126-25 241-39 346l-13 98 14 9c8 6 27 10 41 10h27l6-15 5-15h32l27 29 27 29 25 5 41 6 17 1zm-3966-101 12-10v22h89l23-100 23-99 20-5 127-17 108-13 5 6c3 3 16 45 28 94l23 89 32 3 32 3 6-15 6-16h47l11-20 11-20 24 16 25 16 35-6 35-7v-50l-35-108a9105 9105 0 0 1-109-361l-92-310c-8-30-22-70-30-87l-14-33h-60v30h-19c-11 0-32-5-48-11l-28-10-3 11-4 11-13-11-13-11-50-6-50-6-37 119-81 264-96 300c-51 158-108 348-108 364v8l78-7 77-7zm862-97 45-19 28 16 27 16 143-16 142-16 60-22 60-23 51-52 51-52 13-54 13-54-1-42v-43l-22-46-23-46-37-27-38-28 22-17 23-17 29-52 29-52-1-67-1-66-29-41-29-41-55-28-55-27h-125l-125 1-142 13-141 14-12 7-13 8 37 59c20 32 36 62 36 65v7l-14-5-14-5v38a16624 16624 0 0 0-42 687v46l33-1h32zm1978-16 54-29 48-53 49-54 31-63c17-35 36-80 41-100l19-73 10-38v-211l-19-72-18-71-27-45-26-45-22-16-22-15h-31c-16 0-36-4-44-9l-13-8 11-7c29-18-10-41-89-50l-44-5-50 10-50 9-53 25-54 24-58 58-57 58-37 76-38 75-17 93-18 92-7-7-7-7v21c0 12 4 30 9 40 5 9 14 52 20 95l11 78 27 55 26 54 53 50c29 28 58 50 63 50h11v-22l1-23 24 28 25 28-5 9-5 8 27 11 28 11 85-3 85-3zm-820-27 53-20 59-55 59-55 30-51c16-29 36-74 44-102l16-50 10-80 10-81-10-72c-13-91-30-140-69-197l-31-45-21-11-20-11-33 4-34 4 5-7 4-8-11-7-11-6 12-8 13-8-6-10c-4-5-27-15-52-22l-46-13-67 6-67 7-65 32-65 32-53 53-53 53-35 75-34 75-10 51-10 52v175l20 64 20 64 39 55 39 55 42 29 42 29 67 18 66 17 50-5 50-6z"/><path d="M2686 4794c-3-9-6-51-6-94v-79l11-6c6-4 46-9 90-12l80-6 24 23 25 23v73l-16 22c-8 12-25 27-37 34-20 10-127 37-153 38h-12zm8-438c-3-7-4-48-2-92l3-79 77-3 77-3 22 22 21 21-5 40-5 40-17 18-16 18-42 10c-23 6-57 13-75 16l-33 6zm871 145-6-21 5-17c2-10 14-51 27-90l22-73h35l5 23 25 102c11 44 19 81 18 82-1 2-30 6-63 9l-61 7zm795 56v-75l23-6c12-3 45-6 74-6h52l24 9 25 10 7 30 6 31-6 19-6 19-22 15-22 14-77 7-78 7zm13-347 5-63 14-8 13-9h104l26 12 25 11v74l-21 19-21 19-75 4-76 3zm1601 391-32-19-18-49-19-48 1-65 1-65 12-57 12-57 29-42 28-42 23-13 24-13 33-1h33l21 11 20 11 19 41 19 42v194l-16 48-16 48-25 33-24 32-29 15c-38 20-59 19-96-4m88-97 18-31 11-56 11-56-6-44-7-44-14-19-13-19-21 19-21 19-15 50-15 51v91l11 38 10 38 17-3 16-3zm-901 56-30-31-8-37-8-37 2-76 1-76 22-50 22-51 38-31 39-31h69l29 24 29 25 12 39 12 39v114l-12 47-11 47-29 46-28 46-25 11-26 12h-67zm115-82 17-33 5-76 4-76-11-22-12-21-19 10-20 11-15 36-16 37-5 56-6 55 11 28 11 27h39z"/></g></svg>